<svg xmlns="http://www.w3.org/2000/svg" viewBox="0 0 1180 640" width="1180" height="640" font-family="Helvetica, Arial, sans-serif"><rect width="1180" height="640" fill="#1a1b26"/><text x="90.00" y="42.00" font-size="24" font-weight="bold" fill="#c0caf5" text-anchor="start">What telescope time buys</text><text x="90.00" y="68.00" font-size="14" fill="#565f89" text-anchor="start">Chance of finding Planet Nine (percent of the whole prior) against campaign length.</text><rect x="90.00" y="100.00" width="710.00" height="460.00" fill="#16171f" fill-opacity="1.000"/><line x1="90.00" y1="560.00" x2="90.00" y2="100.00" stroke="#565f89" stroke-width="0.4" stroke-dasharray="2 6"/><text x="90.00" y="580.00" font-size="12" fill="#c0caf5" text-anchor="middle">0</text><line x1="178.75" y1="560.00" x2="178.75" y2="100.00" stroke="#565f89" stroke-width="0.4" stroke-dasharray="2 6"/><text x="178.75" y="580.00" font-size="12" fill="#c0caf5" text-anchor="middle">1000</text><line x1="267.50" y1="560.00" x2="267.50" y2="100.00" stroke="#565f89" stroke-width="0.4" stroke-dasharray="2 6"/><text x="267.50" y="580.00" font-size="12" fill="#c0caf5" text-anchor="middle">2000</text><line x1="356.25" y1="560.00" x2="356.25" y2="100.00" stroke="#565f89" stroke-width="0.4" stroke-dasharray="2 6"/><text x="356.25" y="580.00" font-size="12" fill="#c0caf5" text-anchor="middle">3000</text><line x1="445.00" y1="560.00" x2="445.00" y2="100.00" stroke="#565f89" stroke-width="0.4" stroke-dasharray="2 6"/><text x="445.00" y="580.00" font-size="12" fill="#c0caf5" text-anchor="middle">4000</text><line x1="533.75" y1="560.00" x2="533.75" y2="100.00" stroke="#565f89" stroke-width="0.4" stroke-dasharray="2 6"/><text x="533.75" y="580.00" font-size="12" fill="#c0caf5" text-anchor="middle">5000</text><line x1="622.50" y1="560.00" x2="622.50" y2="100.00" stroke="#565f89" stroke-width="0.4" stroke-dasharray="2 6"/><text x="622.50" y="580.00" font-size="12" fill="#c0caf5" text-anchor="middle">6000</text><line x1="711.25" y1="560.00" x2="711.25" y2="100.00" stroke="#565f89" stroke-width="0.4" stroke-dasharray="2 6"/><text x="711.25" y="580.00" font-size="12" fill="#c0caf5" text-anchor="middle">7000</text><line x1="800.00" y1="560.00" x2="800.00" y2="100.00" stroke="#565f89" stroke-width="0.4" stroke-dasharray="2 6"/><text x="800.00" y="580.00" font-size="12" fill="#c0caf5" text-anchor="middle">8000</text><line x1="90.00" y1="560.00" x2="800.00" y2="560.00" stroke="#565f89" stroke-width="0.4" stroke-dasharray="2 6"/><text x="80.00" y="564.00" font-size="12" fill="#c0caf5" text-anchor="end">0%</text><line x1="90.00" y1="514.00" x2="800.00" y2="514.00" stroke="#565f89" stroke-width="0.4" stroke-dasharray="2 6"/><text x="80.00" y="518.00" font-size="12" fill="#c0caf5" text-anchor="end">2%</text><line x1="90.00" y1="468.00" x2="800.00" y2="468.00" stroke="#565f89" stroke-width="0.4" stroke-dasharray="2 6"/><text x="80.00" y="472.00" font-size="12" fill="#c0caf5" text-anchor="end">4%</text><line x1="90.00" y1="422.00" x2="800.00" y2="422.00" stroke="#565f89" stroke-width="0.4" stroke-dasharray="2 6"/><text x="80.00" y="426.00" font-size="12" fill="#c0caf5" text-anchor="end">6%</text><line x1="90.00" y1="376.00" x2="800.00" y2="376.00" stroke="#565f89" stroke-width="0.4" stroke-dasharray="2 6"/><text x="80.00" y="380.00" font-size="12" fill="#c0caf5" text-anchor="end">8%</text><line x1="90.00" y1="330.00" x2="800.00" y2="330.00" stroke="#565f89" stroke-width="0.4" stroke-dasharray="2 6"/><text x="80.00" y="334.00" font-size="12" fill="#c0caf5" text-anchor="end">10%</text><line x1="90.00" y1="284.00" x2="800.00" y2="284.00" stroke="#565f89" stroke-width="0.4" stroke-dasharray="2 6"/><text x="80.00" y="288.00" font-size="12" fill="#c0caf5" text-anchor="end">12%</text><line x1="90.00" y1="238.00" x2="800.00" y2="238.00" stroke="#565f89" stroke-width="0.4" stroke-dasharray="2 6"/><text x="80.00" y="242.00" font-size="12" fill="#c0caf5" text-anchor="end">14%</text><line x1="90.00" y1="192.00" x2="800.00" y2="192.00" stroke="#565f89" stroke-width="0.4" stroke-dasharray="2 6"/><text x="80.00" y="196.00" font-size="12" fill="#c0caf5" text-anchor="end">16%</text><line x1="90.00" y1="146.00" x2="800.00" y2="146.00" stroke="#565f89" stroke-width="0.4" stroke-dasharray="2 6"/><text x="80.00" y="150.00" font-size="12" fill="#c0caf5" text-anchor="end">18%</text><line x1="90.00" y1="100.00" x2="800.00" y2="100.00" stroke="#565f89" stroke-width="0.4" stroke-dasharray="2 6"/><text x="80.00" y="104.00" font-size="12" fill="#c0caf5" text-anchor="end">20%</text><text x="445.00" y="604.00" font-size="13" fill="#c0caf5" text-anchor="middle">Wall-clock hours</text><path d="M90.00,560.00 L112.19,499.04 L134.38,450.08 L178.75,370.62 L267.50,273.10 L445.00,179.80 L800.00,102.15 " fill="none" stroke="#f7768e" stroke-width="2.4" stroke-dasharray="" stroke-linejoin="round"/><circle cx="112.19" cy="499.04" r="3.2" fill="#f7768e"/><circle cx="134.38" cy="450.08" r="3.2" fill="#f7768e"/><circle cx="178.75" cy="370.62" r="3.2" fill="#f7768e"/><circle cx="267.50" cy="273.10" r="3.2" fill="#f7768e"/><circle cx="445.00" cy="179.80" r="3.2" fill="#f7768e"/><circle cx="800.00" cy="102.15" r="3.2" fill="#f7768e"/><path d="M90.00,560.00 L112.19,500.64 L134.38,456.35 L178.75,394.87 L267.50,332.39 L445.00,275.06 L800.00,239.87 " fill="none" stroke="#e0af68" stroke-width="2.4" stroke-dasharray="" stroke-linejoin="round"/><circle cx="112.19" cy="500.64" r="3.2" fill="#e0af68"/><circle cx="134.38" cy="456.35" r="3.2" fill="#e0af68"/><circle cx="178.75" cy="394.87" r="3.2" fill="#e0af68"/><circle cx="267.50" cy="332.39" r="3.2" fill="#e0af68"/><circle cx="445.00" cy="275.06" r="3.2" fill="#e0af68"/><circle cx="800.00" cy="239.87" r="3.2" fill="#e0af68"/><path d="M90.00,560.00 L112.19,532.28 L134.38,517.44 L178.75,496.98 L267.50,469.94 L445.00,444.61 L800.00,426.26 " fill="none" stroke="#7dcfff" stroke-width="2.4" stroke-dasharray="" stroke-linejoin="round"/><circle cx="112.19" cy="532.28" r="3.2" fill="#7dcfff"/><circle cx="134.38" cy="517.44" r="3.2" fill="#7dcfff"/><circle cx="178.75" cy="496.98" r="3.2" fill="#7dcfff"/><circle cx="267.50" cy="469.94" r="3.2" fill="#7dcfff"/><circle cx="445.00" cy="444.61" r="3.2" fill="#7dcfff"/><circle cx="800.00" cy="426.26" r="3.2" fill="#7dcfff"/><path d="M90.00,560.00 L112.19,547.74 L134.38,540.39 L178.75,531.40 L267.50,522.10 L445.00,513.64 L800.00,508.74 " fill="none" stroke="#bb9af7" stroke-width="2.4" stroke-dasharray="6 4" stroke-linejoin="round"/><circle cx="112.19" cy="547.74" r="3.2" fill="#bb9af7"/><circle cx="134.38" cy="540.39" r="3.2" fill="#bb9af7"/><circle cx="178.75" cy="531.40" r="3.2" fill="#bb9af7"/><circle cx="267.50" cy="522.10" r="3.2" fill="#bb9af7"/><circle cx="445.00" cy="513.64" r="3.2" fill="#bb9af7"/><circle cx="800.00" cy="508.74" r="3.2" fill="#bb9af7"/><line x1="196.30" y1="560.00" x2="196.30" y2="492.46" stroke="#c0caf5" stroke-width="1.2" stroke-dasharray="4 4"/><circle cx="196.30" cy="492.46" r="5" fill="#c0caf5"/><text x="204.30" y="510.46" font-size="12" fill="#c0caf5" text-anchor="start">reference: 1198 h</text><text x="830.00" y="120.00" font-size="13" font-weight="bold" fill="#c0caf5" text-anchor="start">Planning stance</text><line x1="830.00" y1="140.00" x2="858.00" y2="140.00" stroke="#f7768e" stroke-width="2.4" stroke-dasharray=""/><text x="866.00" y="144.00" font-size="12" fill="#c0caf5" text-anchor="start">Race Rubin everywhere</text><text x="866.00" y="160.00" font-size="11" fill="#565f89" text-anchor="start">26.4% left to find</text><line x1="830.00" y1="180.00" x2="858.00" y2="180.00" stroke="#e0af68" stroke-width="2.4" stroke-dasharray=""/><text x="866.00" y="184.00" font-size="12" fill="#c0caf5" text-anchor="start">Concede Rubin's main survey</text><text x="866.00" y="200.00" font-size="11" fill="#565f89" text-anchor="start">18.6% left to find</text><line x1="830.00" y1="220.00" x2="858.00" y2="220.00" stroke="#7dcfff" stroke-width="2.4" stroke-dasharray=""/><text x="866.00" y="224.00" font-size="12" fill="#c0caf5" text-anchor="start">Concede all of Rubin's footprint</text><text x="866.00" y="240.00" font-size="11" fill="#565f89" text-anchor="start">9.7% left to find</text><line x1="830.00" y1="260.00" x2="858.00" y2="260.00" stroke="#bb9af7" stroke-width="2.4" stroke-dasharray="6 4"/><text x="866.00" y="264.00" font-size="12" fill="#c0caf5" text-anchor="start">... and trust the Cassini phase</text><text x="866.00" y="280.00" font-size="11" fill="#565f89" text-anchor="start">2.4% left to find</text><text x="830.00" y="320.00" font-size="13" font-weight="bold" fill="#c0caf5" text-anchor="start">If the true orbit is...</text><text x="830.00" y="342.00" font-size="12" fill="#c0caf5" text-anchor="start">Brown &amp; Batygin 2021</text><text x="830.00" y="357.00" font-size="11" fill="#565f89" text-anchor="start">reference plan 2.9% (best 2.9%)</text><text x="830.00" y="379.00" font-size="12" fill="#c0caf5" text-anchor="start">Siraj, Chyba &amp; Tremaine 2024</text><text x="830.00" y="394.00" font-size="11" fill="#565f89" text-anchor="start">reference plan 1.2% (best 1.3%)</text><text x="830.00" y="416.00" font-size="12" fill="#c0caf5" text-anchor="start">Batygin et al. 2019</text><text x="830.00" y="431.00" font-size="11" fill="#565f89" text-anchor="start">reference plan 4.1% (best 4.8%)</text><text x="830.00" y="453.00" font-size="12" fill="#c0caf5" text-anchor="start">Batygin &amp; Brown 2016</text><text x="830.00" y="468.00" font-size="11" fill="#565f89" text-anchor="start">reference plan 2.1% (best 2.7%)</text></svg>
